<svg width="65" height="64" viewBox="0 0 65 64" fill="none" xmlns="http://www.w3.org/2000/svg">
<path d="M18.1533 28.7733C21.9933 36.32 28.18 42.48 35.7267 46.3467L41.5933 40.48C42.3133 39.76 43.38 39.52 44.3133 39.84C47.3 40.8267 50.5267 41.36 53.8333 41.36C55.3 41.36 56.5 42.56 56.5 44.0267V53.3333C56.5 54.8 55.3 56 53.8333 56C28.7933 56 8.5 35.7067 8.5 10.6667C8.5 9.2 9.7 8 11.1667 8H20.5C21.9667 8 23.1667 9.2 23.1667 10.6667C23.1667 14 23.7 17.2 24.6867 20.1867C24.98 21.12 24.7667 22.16 24.02 22.9067L18.1533 28.7733Z" fill="#625397"/>
</svg>
