<svg width="65" height="64" viewBox="0 0 65 64" fill="none" xmlns="http://www.w3.org/2000/svg">
<path d="M32.5026 5.3335C47.2306 5.3335 59.1693 17.2722 59.1693 32.0002C59.1693 46.7282 47.2306 58.6668 32.5026 58.6668C27.79 58.6749 23.1602 57.4278 19.0893 55.0535L5.84665 58.6668L9.45198 45.4188C7.07587 41.3466 5.82772 36.7149 5.83598 32.0002C5.83598 17.2722 17.7746 5.3335 32.5026 5.3335ZM23.4146 19.4668L22.8813 19.4882C22.5365 19.5119 22.1996 19.6025 21.8893 19.7548C21.6002 19.9189 21.3361 20.1236 21.1053 20.3628C20.7853 20.6642 20.604 20.9255 20.4093 21.1788C19.423 22.4612 18.8919 24.0357 18.9 25.6535C18.9053 26.9602 19.2466 28.2322 19.78 29.4215C20.8706 31.8268 22.6653 34.3735 25.0333 36.7335C25.604 37.3015 26.164 37.8722 26.7666 38.4028C29.7091 40.9932 33.2154 42.8614 37.0066 43.8588L38.5213 44.0908C39.0146 44.1175 39.508 44.0802 40.004 44.0562C40.7805 44.0152 41.5386 43.805 42.2253 43.4402C42.5742 43.2598 42.915 43.064 43.2467 42.8535C43.2467 42.8535 43.3595 42.7771 43.58 42.6135C43.94 42.3468 44.1613 42.1575 44.46 41.8455C44.684 41.6144 44.8706 41.3459 45.02 41.0402C45.228 40.6055 45.436 39.7762 45.5213 39.0855C45.5853 38.5575 45.5666 38.2695 45.5586 38.0908C45.548 37.8055 45.3106 37.5095 45.052 37.3842L43.5 36.6882C43.5 36.6882 41.18 35.6775 39.7613 35.0322C39.6128 34.9675 39.4538 34.9305 39.292 34.9228C39.1095 34.9037 38.9251 34.9241 38.7511 34.9825C38.5772 35.041 38.4179 35.1361 38.284 35.2615C38.2706 35.2562 38.092 35.4082 36.164 37.7442C36.0533 37.8929 35.9009 38.0052 35.7261 38.067C35.5514 38.1287 35.3622 38.137 35.1826 38.0908C35.0089 38.0445 34.8386 37.9857 34.6733 37.9148C34.3426 37.7762 34.228 37.7228 34.0013 37.6268C32.4703 36.9599 31.0532 36.0574 29.8013 34.9522C29.4653 34.6588 29.1533 34.3388 28.8333 34.0295C27.7843 33.0247 26.87 31.8881 26.1133 30.6482L25.956 30.3948C25.8447 30.2236 25.7534 30.0402 25.684 29.8482C25.5826 29.4562 25.8466 29.1415 25.8466 29.1415C25.8466 29.1415 26.4946 28.4322 26.796 28.0482C27.0893 27.6748 27.3373 27.3122 27.4973 27.0535C27.812 26.5468 27.9106 26.0268 27.7453 25.6242C26.9986 23.8002 26.2271 21.9859 25.4306 20.1815C25.2733 19.8242 24.8066 19.5682 24.3826 19.5175C24.2386 19.4997 24.0946 19.4855 23.9506 19.4748C23.5926 19.4543 23.2336 19.4579 22.876 19.4855L23.4146 19.4668Z" fill="#625397"/>
</svg>
