<svg width="65" height="64" fill="none" xmlns="http://www.w3.org/2000/svg"><path d="M32.503 5.333c14.728 0 26.666 11.94 26.666 26.667 0 14.728-11.938 26.667-26.666 26.667a26.533 26.533 0 0 1-13.414-3.614L5.847 58.667l3.605-13.248A26.533 26.533 0 0 1 5.836 32c0-14.728 11.939-26.666 26.667-26.666Zm-9.088 14.134-.534.021a2.666 2.666 0 0 0-.992.267 3.478 3.478 0 0 0-.784.608c-.32.301-.501.563-.696.816a7.28 7.28 0 0 0-1.509 4.475c.005 1.306.347 2.578.88 3.768 1.09 2.405 2.885 4.951 5.253 7.311.571.569 1.131 1.14 1.734 1.67a25.2 25.2 0 0 0 10.24 5.456l1.514.232c.494.026.987-.01 1.483-.035a5.334 5.334 0 0 0 2.221-.616c.35-.18.69-.376 1.022-.587 0 0 .112-.076.333-.24.36-.266.581-.456.88-.767.224-.232.41-.5.56-.806.208-.434.416-1.264.501-1.954.064-.529.046-.816.038-.995-.011-.285-.248-.581-.507-.707l-1.552-.696s-2.32-1.01-3.739-1.656a1.333 1.333 0 0 0-.469-.11 1.28 1.28 0 0 0-1.008.34c-.013-.006-.192.146-2.12 2.482a.934.934 0 0 1-.981.347 3.728 3.728 0 0 1-.51-.176c-.33-.139-.445-.192-.672-.288a16.002 16.002 0 0 1-4.2-2.675c-.336-.293-.648-.613-.968-.922a16.804 16.804 0 0 1-2.72-3.382l-.157-.253a2.665 2.665 0 0 1-.272-.547c-.101-.392.163-.706.163-.706s.648-.71.949-1.094c.293-.373.541-.736.701-.994.315-.507.414-1.027.248-1.43a217.965 217.965 0 0 0-2.314-5.442c-.158-.358-.624-.614-1.048-.665a8.892 8.892 0 0 0-.432-.042 8.012 8.012 0 0 0-1.075.01l.539-.018Z" fill="#625397"/></svg>